<?xml version="1.0" encoding="UTF-8"?><svg id="Layer_2" xmlns="http://www.w3.org/2000/svg" viewBox="0 0 442.69 30.56"><defs><style>.cls-1{fill:#00346a;}</style></defs><g id="Layer_1-2"><g><polygon class="cls-1" points="26.2 .75 18.24 11.75 9.95 .75 0 .75 14.02 18.62 14.02 30.14 22.42 30.14 22.42 18.36 35.6 .75 26.2 .75"/><path class="cls-1" d="M45.85,19.69l2.35-5c.31-.67,.59-1.29,.84-1.87,.25-.57,.49-1.13,.71-1.68,.12-.28,.21-.58,.32-.86,.09,.26,.18,.52,.27,.78,.2,.55,.42,1.11,.67,1.7,.25,.59,.53,1.23,.84,1.93l2.36,5h-8.36Zm.71-18.93l-13.85,29.39h8.23l2.15-4.58h13.91l2.16,4.58h8.4L53.78,.76h-7.22Z"/><polygon class="cls-1" points="72.71 .75 72.71 30.14 98.07 30.14 98.07 22.96 81.02 22.96 81.02 .75 72.71 .75"/><polygon class="cls-1" points="104.58 .75 104.58 30.14 130.82 30.14 130.82 23.3 112.55 23.3 112.55 18.47 128.51 18.47 128.51 12.01 112.55 12.01 112.55 7.6 130.19 7.6 130.19 .75 104.58 .75"/><path class="cls-1" d="M170.01,14.27c-.36,.92-.75,1.86-1.16,2.81-.41,.95-.81,1.95-1.22,3-.11,.28-.21,.58-.31,.87-.03-.09-.06-.19-.09-.28-.31-.88-.62-1.71-.94-2.5-.32-.78-.64-1.51-.94-2.18-.31-.67-.56-1.27-.76-1.81l-5.71-13.43h-8.36l13.01,29.39h7.43L183.78,.75h-8.23l-5.54,13.52Z"/><polygon class="cls-1" points="190.75 .75 190.75 30.14 216.99 30.14 216.99 23.3 198.73 23.3 198.73 18.47 214.68 18.47 214.68 12.01 198.73 12.01 198.73 7.6 216.36 7.6 216.36 .75 190.75 .75"/><path class="cls-1" d="M250.91,6.93v2.54c0,.8,.02,1.57,.06,2.33,.04,.76,.09,1.54,.15,2.35,.06,.81,.13,1.69,.23,2.62,.06,.59,.14,1.23,.23,1.9L234.67,.76h-7.77V30.14h8.02v-8.73c0-1.26,0-2.38-.02-3.36-.01-.98-.05-1.85-.1-2.6-.06-.76-.12-1.45-.19-2.08-.04-.36-.08-.71-.13-1.05l16.6,17.82h7.85V.76h-8.02V6.93Z"/><polygon class="cls-1" points="266.95 .75 266.95 7.93 277.95 7.93 277.95 30.14 286.26 30.14 286.26 7.93 297.6 7.93 297.6 .75 266.95 .75"/><path class="cls-1" d="M326.73,16.62c0,1.32-.29,2.46-.88,3.44-.59,.98-1.4,1.74-2.43,2.29-1.04,.55-2.23,.82-3.57,.82-1.26,0-2.39-.27-3.38-.82-.99-.55-1.78-1.31-2.35-2.29-.57-.98-.86-2.13-.86-3.44V.76h-8.4V16.83c0,2.63,.63,4.97,1.89,7.01,1.26,2.04,3.02,3.65,5.27,4.81,2.25,1.16,4.86,1.74,7.83,1.74s5.65-.58,7.89-1.74c2.24-1.16,3.99-2.76,5.25-4.81,1.26-2.04,1.89-4.38,1.89-7.01V.76h-8.14v15.87Z"/><path class="cls-1" d="M351.84,7.43h7.31c.76,0,1.45,.13,2.08,.38,.63,.25,1.12,.63,1.47,1.13,.35,.5,.52,1.12,.52,1.85s-.17,1.4-.5,1.93c-.34,.53-.81,.94-1.41,1.22-.6,.28-1.27,.42-1.99,.42h-7.47V7.43Zm14.23,11.59c1.68-.87,3-2.06,3.97-3.57,.96-1.51,1.45-3.25,1.45-5.21s-.45-3.64-1.34-5.04c-.9-1.4-2.18-2.49-3.86-3.27-1.68-.78-3.75-1.17-6.21-1.17h-16.04V30.14h7.81v-9.82h4.89l6.87,9.82h9.49l-7.65-10.82c.22-.09,.43-.19,.64-.3"/><polygon class="cls-1" points="379.84 .75 379.84 30.14 406.08 30.14 406.08 23.3 387.82 23.3 387.82 18.47 403.77 18.47 403.77 12.01 387.82 12.01 387.82 7.6 405.45 7.6 405.45 .75 379.84 .75"/><path class="cls-1" d="M441.62,16.31c-.71-1.1-1.68-1.97-2.9-2.6-1.22-.63-2.6-1.1-4.16-1.43-1.55-.32-3.14-.58-4.77-.78-.64-.06-1.35-.13-2.12-.23-.77-.1-1.51-.23-2.23-.4-.71-.17-1.3-.39-1.76-.67-.46-.28-.69-.67-.69-1.18s.24-.91,.71-1.22c.48-.31,1.11-.53,1.89-.67,.78-.14,1.69-.21,2.73-.21s2.06,.11,3.17,.32c1.11,.21,2.18,.5,3.23,.88,1.05,.38,1.98,.85,2.79,1.41l3.99-5.42c-.81-.73-1.83-1.41-3.07-2.04-1.23-.63-2.68-1.13-4.35-1.51s-3.55-.57-5.65-.57c-1.93,0-3.75,.21-5.46,.63-1.71,.42-3.22,1.04-4.53,1.87-1.32,.82-2.34,1.84-3.07,3.04-.73,1.2-1.09,2.56-1.09,4.07,0,1.34,.28,2.54,.84,3.59,.56,1.05,1.38,1.94,2.46,2.67,1.08,.73,2.36,1.34,3.86,1.85,1.5,.5,3.21,.85,5.14,1.05,.84,.11,1.64,.21,2.39,.29,.76,.08,1.44,.18,2.06,.29,.62,.11,1.15,.26,1.6,.44,.45,.18,.79,.41,1.03,.67,.24,.27,.36,.58,.36,.94,0,.64-.26,1.13-.78,1.45-.52,.32-1.15,.54-1.89,.65-.74,.11-1.46,.17-2.16,.17-1.85,0-3.88-.33-6.11-.99-2.23-.66-4.43-1.78-6.61-3.38l-3.86,6.25c1.26,.95,2.67,1.8,4.24,2.54,1.57,.74,3.32,1.34,5.27,1.78,1.95,.45,4.11,.67,6.49,.67,2.66,0,5.05-.39,7.18-1.16,2.13-.77,3.81-1.89,5.04-3.38s1.85-3.29,1.85-5.42c0-1.76-.36-3.2-1.07-4.3"/></g></g></svg>